<svg viewBox="0 0 2000 2000" version="1.1" xmlns="http://www.w3.org/2000/svg" xmlns:xlink="http://www.w3.org/1999/xlink" xml:space="preserve" style="fill-rule:evenodd;clip-rule:evenodd;stroke-linejoin:round;stroke-miterlimit:2;"><g id="Lampada"><path d="M1387.511,1495.057c0,16.583 -13.463,30.046 -30.046,30.046l-712.325,0c-16.583,0 -30.046,-13.463 -30.046,-30.046c0,-16.583 13.463,-30.046 30.046,-30.046l712.325,0c16.583,0 30.046,13.463 30.046,30.046Z" style="fill:url(#_Linear1);"/><path d="M1387.511,1578.463c0,16.583 -13.463,30.046 -30.046,30.046l-712.325,0c-16.583,0 -30.046,-13.463 -30.046,-30.046c0,-16.583 13.463,-30.046 30.046,-30.046l712.325,0c16.583,0 30.046,13.463 30.046,30.046Z" style="fill:url(#_Linear2);"/><path d="M1387.511,1661.051c0,16.583 -13.463,30.046 -30.046,30.046l-712.325,0c-16.583,0 -30.046,-13.463 -30.046,-30.046c0,-16.583 13.463,-30.046 30.046,-30.046l712.325,0c16.583,0 30.046,13.463 30.046,30.046Z" style="fill:url(#_Linear3);"/><path d="M1389.569,1441.795l-779.139,0c-199.625,-131.173 -319.835,-354.001 -319.835,-592.866c0,-391.531 317.873,-709.404 709.404,-709.404c391.531,0 709.404,317.873 709.404,709.404c0,238.865 -120.209,461.693 -319.835,592.866Z" style="fill:url(#_Linear4);"/><path d="M655.802,1721.978l688.395,-8.218c-90.197,92.377 -213.396,145.139 -342.496,146.681c-129.099,1.541 -253.523,-48.265 -345.9,-138.462Z" style="fill:url(#_Linear5);"/></g><defs><linearGradient id="_Linear1" x1="0" y1="0" x2="1" y2="0" gradientUnits="userSpaceOnUse" gradientTransform="matrix(-809.293781,942.249188,-942.249188,-809.293781,1253.158155,652.058931)"><stop offset="0" style="stop-color:#2dd4bf;stop-opacity:1"/><stop offset="1" style="stop-color:#079482;stop-opacity:1"/></linearGradient><linearGradient id="_Linear2" x1="0" y1="0" x2="1" y2="0" gradientUnits="userSpaceOnUse" gradientTransform="matrix(-809.293781,942.249188,-942.249188,-809.293781,1253.158155,652.058931)"><stop offset="0" style="stop-color:#2dd4bf;stop-opacity:1"/><stop offset="1" style="stop-color:#079482;stop-opacity:1"/></linearGradient><linearGradient id="_Linear3" x1="0" y1="0" x2="1" y2="0" gradientUnits="userSpaceOnUse" gradientTransform="matrix(-809.293781,942.249188,-942.249188,-809.293781,1253.158155,653.181047)"><stop offset="0" style="stop-color:#2dd4bf;stop-opacity:1"/><stop offset="1" style="stop-color:#079482;stop-opacity:1"/></linearGradient><linearGradient id="_Linear4" x1="0" y1="0" x2="1" y2="0" gradientUnits="userSpaceOnUse" gradientTransform="matrix(-809.293781,942.249188,-942.249188,-809.293781,1253.158155,656.547394)"><stop offset="0" style="stop-color:#2dd4bf;stop-opacity:1"/><stop offset="1" style="stop-color:#079482;stop-opacity:1"/></linearGradient><linearGradient id="_Linear5" x1="0" y1="0" x2="1" y2="0" gradientUnits="userSpaceOnUse" gradientTransform="matrix(-809.293781,942.249188,-942.249188,-809.293781,1253.158155,637.471426)"><stop offset="0" style="stop-color:#2dd4bf;stop-opacity:1"/><stop offset="1" style="stop-color:#079482;stop-opacity:1"/></linearGradient></defs></svg>
